<svg width="34" height="34" viewBox="0 0 34 34" fill="none" xmlns="http://www.w3.org/2000/svg">
<path id="Vector" d="M32.9388 26.6421C31.6409 25.3345 28.4974 23.4262 26.9723 22.6571C24.9862 21.6568 24.8227 21.575 23.2616 22.7348C22.2203 23.5087 21.5281 24.2001 20.3094 23.9402C19.0908 23.6803 16.4426 22.215 14.1239 19.9037C11.8051 17.5925 10.2547 14.8677 9.99393 13.6532C9.7332 12.4387 10.4361 11.7547 11.2028 10.711C12.2833 9.23994 12.2015 8.99476 11.278 7.00879C10.5579 5.46415 8.59385 2.35034 7.28122 1.05905C5.87705 -0.327865 5.87705 -0.0826833 4.97227 0.293262C4.23564 0.6031 3.52897 0.979805 2.86111 1.41865C1.55339 2.28741 0.827603 3.00906 0.320043 4.09358C-0.187517 5.1781 -0.415552 7.72063 2.20562 12.4821C4.82679 17.2435 6.66577 19.6782 10.4721 23.4736C14.2784 27.269 17.2052 29.3097 21.4839 31.7092C26.7769 34.6735 28.8072 34.0957 29.895 33.5889C30.9829 33.0822 31.7079 32.363 32.5783 31.0554C33.0183 30.3887 33.3959 29.6829 33.7062 28.9468C34.083 28.0454 34.3282 28.0454 32.9388 26.6421Z" fill="#007A1C" style="fill:#007A1C;fill:color(display-p3 0.0000 0.4792 0.1079);fill-opacity:1;"/>
</svg>
